# Aspose.3D Wavefront OBJ Exporter
# Copyright 2004-2022 Aspose Pty Ltd.
# File created: 09/13/2022 02:55:53

mtllib material.lib

#
# object Node #0
#

v -0.19991835539232256 0.18722321078287148 0.01139998513371817
v 0.2145127370674466 0.18722319786654868 0.38875530781238568
v 0.214512735079404 0.1872232107828716 0.01139998295034713
v -0.19991835340427992 0.18722319786654852 0.38875530999575672
v 0.21451273507940412 -0.19013211407916688 0.01139999586667009
v -0.19991835340427984 -0.19013212699548996 0.3887553229120796
v -0.19991835539232244 -0.19013211407916704 0.01139999805004113
v 0.21451273507940412 -0.19013211407916688 0.01139999586667009
v 0.21451273706744672 -0.1901321269954898 0.38875532072870856
v -0.19991835340427984 -0.19013212699548996 0.3887553229120796
v -0.19991835539232244 -0.19013211407916704 0.01139999805004113
v -0.19991835340427992 0.18722319786654852 0.38875530999575672
v -0.19991835539232256 0.18722321078287148 0.01139998513371817
v -0.19991835340427984 -0.19013212699548996 0.3887553229120796
v 0.214512735079404 0.1872232107828716 0.01139998295034713
v 0.21451273706744672 -0.1901321269954898 0.38875532072870856
v 0.21451273507940412 -0.19013211407916688 0.01139999586667009
v 0.2145127370674466 0.18722319786654868 0.38875530781238568
v 0.214512735079404 0.1872232107828716 0.01139998295034713
v -0.19991835539232244 -0.19013211407916704 0.01139999805004113
v -0.19991835539232256 0.18722321078287148 0.01139998513371817
v 0.21451273507940412 -0.19013211407916688 0.01139999586667009
v 0.21451273706744672 -0.1901321269954898 0.38875532072870856
v -0.19991835340427992 0.18722319786654852 0.38875530999575672
v -0.19991835340427984 -0.19013212699548996 0.3887553229120796
v 0.2145127370674466 0.18722319786654868 0.38875530781238568
# 26 vertices

vn -1.3369031364680452E-16 0.99999999999999936 3.422854288892552E-08
vn -1.3369031364680452E-16 0.99999999999999936 3.422854288892552E-08
vn -1.3369031364680452E-16 0.99999999999999936 3.422854288892552E-08
vn -1.3369031364680452E-16 0.99999999999999936 3.422854288892552E-08
vn 1.3369031364680452E-16 -0.99999999999999936 -3.422854288892552E-08
vn 1.3369031364680452E-16 -0.99999999999999936 -3.422854288892552E-08
vn 1.3369031364680452E-16 -0.99999999999999936 -3.422854288892552E-08
vn 1.3369031364680452E-16 -0.99999999999999936 -3.422854288892552E-08
vn 1.3369031364680452E-16 -0.99999999999999936 -3.422854288892552E-08
vn 1.3369031364680452E-16 -0.99999999999999936 -3.422854288892552E-08
vn -1 -3.1401850745566305E-16 5.268357276409513E-09
vn -1 -3.1401850745566305E-16 5.268357276409513E-09
vn -1 -3.1401850745566305E-16 5.268357276409513E-09
vn -1 -3.1401850745566305E-16 5.268357276409513E-09
vn 1 3.1401850745566305E-16 -5.268357276409513E-09
vn 1 3.1401850745566305E-16 -5.268357276409513E-09
vn 1 3.1401850745566305E-16 -5.268357276409513E-09
vn 1 3.1401850745566305E-16 -5.268357276409513E-09
vn -5.268357276409521E-09 3.422854299994782E-08 -0.99999999999999936
vn -5.268357276409521E-09 3.422854299994782E-08 -0.99999999999999936
vn -5.268357276409521E-09 3.422854299994782E-08 -0.99999999999999936
vn -5.268357276409521E-09 3.422854299994782E-08 -0.99999999999999936
vn 5.268357276409521E-09 -3.422854299994782E-08 0.99999999999999936
vn 5.268357276409521E-09 -3.422854299994782E-08 0.99999999999999936
vn 5.268357276409521E-09 -3.422854299994782E-08 0.99999999999999936
vn 5.268357276409521E-09 -3.422854299994782E-08 0.99999999999999936
# 26 vertex normals

vt 0.73078346252441408 -2.0500843675108626E-05 0
vt 0.3725005388259888 -0.32625070214271544 0
vt 0.3725005388259888 -2.0479488739510998E-05 0
vt 0.73078346252441408 -0.32625070214271544 0
vt 0.5106356143951416 -0.94450330734252928 0
vt 0.49390178918838504 -0.38182747364044192 0
vt 0.69411838054656984 -0.65102171897888184 0
vt 0.50609850883483888 -0.90683865547180176 0
vt 0.3058752417564392 -0.63762634992599488 0
vt 0.48936516046524048 -0.344162255525589 0
vt 0.69411838054656984 -0.65102171897888184 0
vt 0.90810692310333248 -0.290400892496109 0
vt 0.999742329120636 -0.62397754192352296 0
vt 0.49390178918838504 -0.38182747364044192 0
vt 0.09189286828041076 -0.99826484918594368 0
vt 0.3058752417564392 -0.63762634992599488 0
vt 0.50609850883483888 -0.90683865547180176 0
vt 0.0002574622631072998 -0.66468787193298336 0
vt 0.93402254581451424 -0.99826443195343024 0
vt 0.69411838054656984 -0.65102171897888184 0
vt 0.999742329120636 -0.62397754192352296 0
vt 0.5106356143951416 -0.94450330734252928 0
vt 0.3058752417564392 -0.63762634992599488 0
vt 0.0659775584936142 -0.29040059447288512 0
vt 0.48936516046524048 -0.344162255525589 0
vt 0.0002574622631072998 -0.66468787193298336 0
# 26 texture coords

g Node #0
usemtl mat_13406439
s 1
f 1/1/1 2/2/2 3/3/3
f 1/1/1 4/4/4 2/2/2
f 5/5/5 6/6/6 7/7/7
f 8/8/8 9/9/9 10/10/10
f 11/11/11 12/12/12 13/13/13
f 11/11/11 14/14/14 12/12/12
f 15/15/15 16/16/16 17/17/17
f 15/15/15 18/18/18 16/16/16
f 19/19/19 20/20/20 21/21/21
f 19/19/19 22/22/22 20/20/20
f 23/23/23 24/24/24 25/25/25
f 23/23/23 26/26/26 24/24/24
#12 polygons

